<svg version="1.1" xmlns="http://www.w3.org/2000/svg" xmlns:xlink="http://www.w3.org/1999/xlink" width="59.66359" height="59.66359" viewBox="0,0,59.66359,59.66359"><g transform="translate(-210.1682,-150.1682)"><g data-paper-data="{&quot;isPaintingLayer&quot;:true}" fill-rule="nonzero" stroke-linejoin="miter" stroke-miterlimit="10" stroke-dasharray="" stroke-dashoffset="0" style="mix-blend-mode: normal"><path d="M210.1682,209.8318v-59.66359h59.66359v59.66359z" fill="none" stroke="none" stroke-width="0" stroke-linecap="butt"/><path d="M239.33333,199.94444l-23.66666,-25l12.44445,-16.66666l24.3917,0.06573l11.83052,16.2676z" fill="#bd0058" stroke="#ffffff" stroke-width="7.5" stroke-linecap="butt"/><path d="M239.33333,199.94444l-23.66666,-25l12.44445,-16.66666l24.3917,0.06573l11.83052,16.2676z" fill="#bd0058" stroke="#000000" stroke-width="2" stroke-linecap="butt"/><path d="M228.55556,169.61111l0.44445,-10.44445h23.22222l0.33334,10.44445z" fill-opacity="0.6549" fill="#ffffff" stroke="none" stroke-width="0" stroke-linecap="butt"/><path d="M217,174.83333l11.77777,-15.66666l-0.11111,10.77777z" fill-opacity="0.41176" fill="#ffffff" stroke="none" stroke-width="0" stroke-linecap="butt"/><path d="M252.65723,169.94444l-0.65723,-10.44445l11.33333,15.33334z" data-paper-data="{&quot;index&quot;:null}" fill-opacity="0.41176" fill="#ffffff" stroke="none" stroke-width="0" stroke-linecap="butt"/><path d="M228.44445,169.72222h24.66666l-13.66666,28.33334z" fill-opacity="0.40392" fill="#560065" stroke="none" stroke-width="0" stroke-linecap="butt"/><path d="M239.33333,202.5l14.11112,-32.66667l-25.22223,-0.33334l0.55556,-12" fill="none" stroke="#ffffff" stroke-width="2.5" stroke-linecap="round"/></g></g></svg>